PathFileType	4	(X/Y/Z)	C:/Users/opensim2020/Desktop/walking_exp_matlab/subject03_walking13_straight_04.trc																																																																																																																																								
DataRate	CameraRate	NumFrames	NumMarkers	Units	OrigDataRate	OrigDataStartFrame	OrigNumFrames																																																																																																																																				
100	100	5	46	mm	100	2262	200																																																																																																																																				
Frame#	Time	LFHD			RFHD			LBHD			RBHD			C7			T10			CLAV			STRN			RBAK			LSHO			LUPA			LELB			LFRM			LWRA			LWRB			LFIN			RSHO			RUPA			RELB			RFRM			RWRA			RWRB			RFIN			LASI			RASI			LPSI			RPSI			LTHI			LKNE			LTIB			LANK			LHEE			LTOE			RTHI			RKNE			RTIB			RANK			RHEE			RTOE			*39			*40			*41			*42			*43			*44			*45		
		X1	Y1	Z1	X2	Y2	Z2	X3	Y3	Z3	X4	Y4	Z4	X5	Y5	Z5	X6	Y6	Z6	X7	Y7	Z7	X8	Y8	Z8	X9	Y9	Z9	X10	Y10	Z10	X11	Y11	Z11	X12	Y12	Z12	X13	Y13	Z13	X14	Y14	Z14	X15	Y15	Z15	X16	Y16	Z16	X17	Y17	Z17	X18	Y18	Z18	X19	Y19	Z19	X20	Y20	Z20	X21	Y21	Z21	X22	Y22	Z22	X23	Y23	Z23	X24	Y24	Z24	X25	Y25	Z25	X26	Y26	Z26	X27	Y27	Z27	X28	Y28	Z28	X29	Y29	Z29	X30	Y30	Z30	X31	Y31	Z31	X32	Y32	Z32	X33	Y33	Z33	X34	Y34	Z34	X35	Y35	Z35	X36	Y36	Z36	X37	Y37	Z37	X38	Y38	Z38	X39	Y39	Z39	X40	Y40	Z40	X41	Y41	Z41	X42	Y42	Z42	X43	Y43	Z43	X44	Y44	Z44	X45	Y45	Z45	X46	Y46	Z46
																																																																																																																																											
101	1	-149.74977	1615.10815	-1498.90576	-163.47897	1623.23975	-1366.88013	-281.04752	1583.44055	-1506.32654	-289.73987	1590.65979	-1375.66528	-326.68338	1417.49426	-1447.5946	-343.26001	1099.82483	-1447.74329	-202.57541	1346.98865	-1436.85669	-148.84816	1186.08691	-1437.78491	-376.17828	1235.53979	-1352.09583	-238.77406	1378.87378	-1596.07947	-225.7973	1180.35791	-1665.36438	-211.09528	1057.66248	-1674.70068	-182.20576	930.08795	-1671.88159	-171.90172	810.40393	-1641.54407	-180.21582	818.16589	-1696.86047	-168.60727	734.19238	-1687.28711	-263.61035	1369.44275	-1281.05762	-237.91049	1148.25159	-1208.88867	-204.49501	1039.98413	-1198.01221	-161.03941	910.24365	-1199.58826	-110.33959	825.67743	-1237.62231	-141.63515	811.34167	-1195.49268	-103.44897	747.70172	-1208.39014	-160.0995	951.31085	-1557.55981	-176.12442	944.46539	-1320.29041	-326.02988	963.53998	-1518.4729	-334.3866	962.44934	-1369.27344	-190.4982	643	-1594.85071	-178.38078	469.2374	-1546.76746	-238.73917	276.97861	-1549.12512	-276.82312	71.93507	-1503.38916	-322.05441	38.49176	-1468.729	-128.14836	35.1922	-1470.30627	-169.2421	646.19775	-1275.8562	-102.92997	479.06998	-1295.05029	-232.38965	341.51382	-1294.84326	-380.01596	185.37729	-1337.35278	-431.02927	186.54631	-1393.43042	-303.74863	64.79981	-1343.89941	NaN	NaN	NaN	NaN	NaN	NaN	NaN	NaN	NaN	NaN	NaN	NaN	NaN	NaN	NaN	NaN	NaN	NaN	NaN	NaN	NaN
102	1.01	-137.38348	1615.24109	-1498.62207	-151.28346	1623.16797	-1366.58142	-268.84671	1584.07385	-1506.27551	-277.86115	1591.24048	-1375.62415	-315.30609	1418.09814	-1447.82068	-331.77844	1100.34888	-1448.14661	-191.22269	1347.45874	-1437.01147	-137.34271	1186.61597	-1438.34131	-364.81262	1235.9856	-1352.57385	-227.39418	1379.7395	-1596.09875	-211.67004	1181.98413	-1665.87366	-193.85696	1059.67029	-1675.17737	-161.15077	933.01331	-1671.64331	-146.95918	813.96997	-1640.64905	-155.38589	821.19019	-1695.95532	-140.00621	738.12244	-1686.17236	-252.58083	1369.61536	-1281.27136	-229.32274	1148.1145	-1209.07861	-197.37285	1039.36267	-1198.41797	-156.48135	908.86084	-1200.01343	-107.24252	823.12708	-1238.14282	-138.87914	809.45831	-1196.01624	-101.91829	744.87567	-1208.79712	-149.33469	951.34052	-1558.68579	-163.69525	945.78375	-1321.36157	-314.84839	963.90302	-1518.29602	-322.34113	963.39551	-1369.02148	-184.37	642.90405	-1594.67786	-175.0712	468.7717	-1546.9314	-237.21063	277.19104	-1549.02844	-276.74142	72.32612	-1503.30872	-322.37558	39.30502	-1468.65552	-128.11865	35.14026	-1470.37585	-152.79376	648.41345	-1276.25	-83.41908	482.4747	-1296.95996	-207.35788	339.41089	-1296.26587	-347.83865	176.62474	-1338.45996	-399.46362	174.64825	-1394.17224	-264.37427	61.36609	-1344.92578	NaN	NaN	NaN	NaN	NaN	NaN	NaN	NaN	NaN	NaN	NaN	NaN	NaN	NaN	NaN	NaN	NaN	NaN	NaN	NaN	NaN
103	1.02	-125.23876	1615.12219	-1498.29187	-139.19057	1623.00073	-1366.28381	-256.69559	1584.57532	-1506.2793	-266.02271	1591.59265	-1375.43933	-303.76993	1418.30701	-1447.91016	-320.28265	1100.65967	-1448.47266	-179.74907	1347.6687	-1437.2074	-125.81319	1186.90564	-1438.93616	-353.50772	1236.34949	-1353.1665	-216.18391	1380.43079	-1596.11658	-197.7348	1183.46667	-1666.49988	-177.011	1061.59387	-1675.70166	-140.19783	936.09741	-1671.40405	-121.77642	817.94244	-1639.63794	-130.49437	824.44031	-1694.92517	-111.56444	742.39081	-1684.76099	-241.43784	1369.54041	-1281.52869	-220.69888	1147.76721	-1209.2937	-190.28897	1038.50598	-1198.76135	-151.6562	907.21234	-1200.48242	-104.48282	820.46185	-1238.60901	-136.00087	807.62286	-1196.18372	-100.56602	742.12787	-1209.12646	-138.64558	951.18549	-1559.75867	-151.3148	946.66101	-1322.4436	-303.72485	964.10504	-1518.12085	-310.29004	964.08813	-1368.76404	-178.30795	642.70227	-1594.50989	-171.91412	468.29504	-1547.10596	-235.8231	277.45862	-1548.89465	-276.44803	72.37352	-1502.9801	-321.78632	39.59375	-1468.35474	-128.06241	35.07899	-1470.42456	-137.55057	650.70782	-1276.33862	-64.50606	485.52274	-1298.96619	-182.27823	336.90463	-1297.52307	-314.75824	167.01591	-1339.65283	-366.53568	161.93634	-1395.3092	-224.69229	57.59106	-1345.97021	NaN	NaN	NaN	NaN	NaN	NaN	NaN	NaN	NaN	NaN	NaN	NaN	NaN	NaN	NaN	NaN	NaN	NaN	NaN	NaN	NaN
104	1.03	-112.93122	1614.99854	-1497.99719	-127.09765	1622.60986	-1365.96033	-244.50856	1584.93127	-1506.21448	-254.05331	1591.67859	-1375.34082	-292.06036	1418.36926	-1447.92529	-308.7504	1100.77832	-1448.71252	-168.24881	1347.55469	-1437.42358	-114.28684	1186.88831	-1439.63599	-341.93216	1236.34021	-1353.60669	-204.86487	1380.88867	-1596.16846	-183.93759	1184.73511	-1667.15857	-160.14124	1063.41919	-1676.36548	-119.20029	939.25793	-1671.29688	-96.13665	822.36536	-1638.66626	-105.73402	827.836	-1693.7428	-83.10458	747.00488	-1683.13	-230.06557	1369.28381	-1281.76648	-211.90294	1147.19495	-1209.59924	-183.21831	1037.46619	-1199.02209	-146.92349	905.47174	-1200.87915	-101.44926	817.73737	-1238.86084	-133.36584	805.38275	-1196.64624	-99.31737	739.30786	-1209.33289	-127.98013	950.75159	-1560.74939	-138.89131	947.14606	-1323.14514	-292.62296	963.91968	-1517.68323	-298.30072	964.47351	-1368.48572	-171.92479	642.39893	-1594.28052	-168.89824	467.70758	-1547.26868	-234.50612	277.73209	-1548.78638	-276.71329	72.98919	-1502.9585	-321.46637	39.91002	-1467.91223	-127.87518	35.24849	-1470.51501	-121.04685	652.0766	-1277.05396	-46.25325	488.34027	-1300.98779	-157.38766	333.93048	-1299.06152	-280.66049	157.20311	-1341.18591	-332.38171	148.73906	-1396.77344	-184.01518	53.81333	-1347.27039	NaN	NaN	NaN	NaN	NaN	NaN	NaN	NaN	NaN	NaN	NaN	NaN	NaN	NaN	NaN	NaN	NaN	NaN	NaN	NaN	NaN
105	1.04	-100.58124	1614.66907	-1497.63232	-115.06699	1622.03088	-1365.59326	-232.35675	1585.11938	-1506.18848	-242.01718	1591.68066	-1375.35425	-280.39084	1418.29883	-1448.05212	-297.15485	1100.67346	-1448.94922	-156.82515	1347.35449	-1437.82397	-102.81342	1186.59119	-1440.35608	-330.35461	1236.13489	-1354.2345	-193.50923	1381.12231	-1596.2572	-170.34013	1185.77747	-1667.82458	-143.53966	1065.10425	-1677.12329	-98.46049	942.44189	-1671.20752	-70.74818	827.03754	-1637.57312	-81.01001	831.40192	-1692.53845	-54.88991	751.88776	-1681.37817	-218.55205	1368.81848	-1282.02026	-202.96059	1146.39551	-1209.91467	-176.04247	1036.23962	-1199.38403	-142.24498	903.52533	-1201.22876	-98.49033	814.9328	-1239.22754	-130.60281	803.39429	-1196.69446	-97.64978	736.47937	-1209.6123	-117.40009	950.14954	-1561.70972	-126.65775	947.35974	-1324.08521	-281.57874	963.72314	-1517.27515	-286.33264	964.50366	-1368.12683	-165.30801	641.95532	-1594.07483	-165.50745	467.34506	-1547.51929	-233.23747	278.06165	-1548.53979	-276.60651	73.50474	-1502.67603	-321.35455	40.62611	-1467.54443	-127.74337	35.20856	-1470.60449	-105.4432	653.133	-1279.68091	-28.69527	490.81689	-1302.92834	-132.45828	330.43759	-1300.69189	-245.88896	146.88438	-1342.76929	-296.53284	134.85646	-1398.37854	-142.74724	50.27363	-1348.68958	NaN	NaN	NaN	NaN	NaN	NaN	NaN	NaN	NaN	NaN	NaN	NaN	NaN	NaN	NaN	NaN	NaN	NaN	NaN	NaN	NaN
